<svg id="Capa_1" enable-background="new 0 0 510 510" height="512" viewBox="0 0 510 510" width="512" xmlns="http://www.w3.org/2000/svg"><g id="XMLID_365_"><path id="XMLID_367_" d="m444.662 135.624c11.619-71.157-41.076-135.624-109.974-135.624-36.902 0-69.613 18.642-89.922 47.362-15.888-9.053-34.123-14.204-53.516-14.204-56.304 0-102.857 43.391-110.465 99.779-45.196 3.65-80.785 42.927-80.785 90.878v.001c0 50.359 39.245 91.184 87.656 91.184h62.344v105h-32.58c-6.192-17.459-22.865-30-42.42-30-24.812 0-45 20.186-45 45s20.188 45 45 45c19.555 0 36.228-12.541 42.42-30h62.58v-135h60v-120h30v120h60v135h62.58c6.192 17.459 22.865 30 42.42 30 24.814 0 45-20.186 45-45s-20.186-45-45-45c-19.555 0-36.228 12.541-42.42 30h-32.58v-105h62.344c48.411 0 87.656-40.825 87.656-91.184v-.001c0-42.335-27.738-77.922-65.338-88.191z"/><path id="XMLID_403_" d="m240 422.58c-17.459 6.192-30 22.865-30 42.42 0 24.814 20.188 45 45 45 24.814 0 45-20.186 45-45 0-19.555-12.541-36.228-30-42.42v-107.58h-30z"/></g></svg>