<svg height="495pt" viewBox="0 0 495 495.83864" width="495pt" xmlns="http://www.w3.org/2000/svg"><path d="m88.402344 15.960938c-.402344-4.648438-2.660156-8.9375-6.269532-11.898438-3.617187-3-8.28125-4.429688-12.957031-3.9804688l-52.726562 4.9531248c-4.664063.417969-8.96875 2.675782-11.960938 6.277344-2.996093 3.597656-4.4296872 8.242188-3.992187 12.902344l2.488281 26.367187 87.914063-8.234375zm0 0"/><path d="m130.484375 492.90625c1.683594-1.832031 2.507813-4.300781 2.257813-6.777344l-8.828126-93.742187c-39.835937-49.644531-46.285156-118.25-16.390624-174.449219l-14.917969-158.015625-87.914063 8.238281 39.574219 419.6875c.433594 4.546875 4.261719 8.011719 8.824219 7.992188h70.90625c2.480468-.007813 4.839844-1.074219 6.488281-2.933594zm0 0"/><path d="m202.929688 140.273438c28.808593-8.449219 59.417968-8.546876 88.277343-.273438l.625-76.757812h-88.273437zm0 0"/><path d="m227.605469 374.566406c-53.714844-53.328125-73.042969-132.238281-50.054688-204.351562-6.796875 3.847656-13.257812 8.257812-19.324219 13.179687-1.289062 4.671875-2.503906 9.367188-3.449218 14.035157-.839844 4.109374-4.449219 7.058593-8.644532 7.0625-.589843 0-1.183593-.058594-1.765624-.175782-1.75-.382812-3.339844-1.308594-4.535157-2.648437-35.457031 41.878906-43.429687 100.511719-20.4375 150.332031 22.992188 49.824219 72.777344 81.804688 127.648438 82-.265625-1.789062.042969-3.613281.882812-5.214844 1.128907-2.050781 3.027344-3.570312 5.277344-4.222656 2.25-.648438 4.667969-.378906 6.71875.753906 4.148437 2.292969 8.484375 4.414063 12.828125 6.390625 10.652344-1.894531 21.050781-5.023437 30.984375-9.324219-28.648437-10.011718-54.671875-26.359374-76.128906-47.816406zm-91.808594-98.050781c-1.953125-12.140625-2.9375-24.421875-2.9375-36.722656 0-1.5625 0-3.113281 0-4.660157.257813-4.800781 4.191406-8.582031 9.003906-8.652343 2.339844.046875 4.570313 1.023437 6.191407 2.714843 1.625 1.691407 2.507812 3.957032 2.457031 6.300782v4.296875c.007812 11.359375.914062 22.695312 2.71875 33.910156.773437 4.808594-2.496094 9.339844-7.308594 10.113281-.46875.078125-.945313.117188-1.421875.117188-4.324219-.007813-8.011719-3.144532-8.703125-7.417969zm39.722656 81.089844c-1.339843.777343-2.863281 1.183593-4.410156 1.175781-3.160156.007812-6.085937-1.675781-7.664063-4.414062-6.910156-12.007813-12.714843-24.617188-17.347656-37.675782-1.558594-4.574218.851563-9.554687 5.40625-11.171875 4.558594-1.613281 9.566406.738281 11.234375 5.273438 4.277344 12.046875 9.640625 23.675781 16.023438 34.746093 1.171875 2.03125 1.484375 4.445313.875 6.710938-.613281 2.261719-2.097657 4.191406-4.132813 5.355469zm53.796875 58.546875c-3.097656 3.761718-8.65625 4.304687-12.421875 1.207031-5.789062-4.757813-11.472656-9.886719-16.816406-15.253906-4.410156-4.367188-8.675781-9.027344-12.746094-13.820313-3.15625-3.71875-2.703125-9.292968 1.015625-12.449218s9.289063-2.703126 12.445313 1.015624c3.761719 4.414063 7.71875 8.730469 11.761719 12.765626 4.96875 4.96875 10.203124 9.710937 15.550781 14.125 3.753906 3.097656 4.285156 8.652343 1.195312 12.410156zm0 0"/><path d="m347.085938 377.644531c3.855468.804688 7.875 1.308594 11.871093 1.835938 27.316407-35.015625 36.558594-80.847657 24.945313-123.710938-11.613282-42.867187-42.726563-77.765625-83.984375-94.207031h-.050781c-1.816407-.058594-3.570313-.691406-5.003907-1.808594-15.164062-5.417968-31.144531-8.207031-47.246093-8.234375-3.390626 0-6.746094.253907-10.089844.492188-1.765625 3.59375-3.53125 7.1875-5.050782 10.859375-1.175781 2.925781-3.824218 5.003906-6.945312 5.449218-3.125.441407-6.246094-.8125-8.195312-3.292968-1.945313-2.484375-2.417969-5.816406-1.242188-8.742188.167969-.421875.371094-.828125.546875-1.253906-5.609375 1.265625-11.140625 2.875-16.550781 4.820312-20.777344 49.699219-18.851563 105.980469 5.265625 154.144532 24.117187 48.164062 68.03125 83.421875 120.269531 96.558594 6.796875-4.570313 13.183594-9.722657 19.09375-15.394532-.414062-.089844-.882812-.113281-1.269531-.203125-3.160157-.574219-5.757813-2.8125-6.789063-5.855469-1.027344-3.039062-.328125-6.398437 1.835938-8.773437 2.160156-2.375 5.441406-3.386719 8.5625-2.648437zm-143.609376-154.453125v-1.050781c-.003906-11.082031 1.019532-22.136719 3.054688-33.023437.902344-4.792969 5.515625-7.949219 10.308594-7.050782 4.792968.898438 7.949218 5.515625 7.046875 10.304688-1.835938 9.816406-2.757813 19.78125-2.753907 29.769531.097657 4.953125-3.753906 9.09375-8.703124 9.355469h-.125c-2.277344.089844-4.496094-.738282-6.15625-2.300782-1.660157-1.5625-2.621094-3.726562-2.671876-6.003906zm24.90625 71.335938c-4.503906 1.859375-9.664062-.277344-11.53125-4.777344-4.371093-10.535156-7.695312-21.476562-9.929687-32.664062-.945313-4.773438 2.152344-9.410157 6.925781-10.363282 4.769532-.957031 9.414063 2.128906 10.382813 6.894532 2.011719 10.066406 5 19.914062 8.925781 29.398437 1.851562 4.496094-.285156 9.644531-4.773438 11.511719zm38.652344 51.886718c-3.464844 3.425782-9.050781 3.394532-12.480468-.070312-8.023438-8.101562-15.253907-16.953125-21.59375-26.429688-1.945313-2.613281-2.292969-6.089843-.902344-9.039062 1.390625-2.945312 4.292968-4.890625 7.546875-5.050781 3.257812-.160157 6.335937 1.484375 8.011719 4.28125 5.699218 8.546875 12.203124 16.527343 19.417968 23.835937 3.441406 3.445313 3.441406 9.027344 0 12.472656zm55.289063 33.542969c-.917969 2.15625-2.65625 3.855469-4.832031 4.730469-2.171876.871094-4.605469.84375-6.757813-.078125-10.5-4.484375-20.539063-9.984375-29.96875-16.417969-3.613281-2.886718-4.382813-8.074218-1.769531-11.886718 2.617187-3.8125 7.730468-4.960938 11.726562-2.632813 8.476563 5.792969 17.503906 10.738281 26.949219 14.765625 4.46875 1.914062 6.546875 7.082031 4.652344 11.554688zm0 0"/><path d="m387.738281 217.902344c29.921875 56.21875 23.46875 124.859375-16.402343 174.519531l-8.871094 93.707031c-.238282 2.480469.585937 4.949219 2.269531 6.789063 1.679687 1.84375 4.0625 2.886719 6.554687 2.875h70.90625c4.566407.023437 8.398438-3.449219 8.828126-7.996094l39.535156-419.628906-87.902344-8.234375zm0 0"/><path d="m478.785156 5.035156-52.726562-4.9453122c-4.664063-.4648438-9.320313.9492182-12.9375 3.9335942-3.613282 2.984374-5.882813 7.289062-6.308594 11.957031l-2.496094 26.410156 87.902344 8.238281 2.5-26.386718c.875-9.671876-6.226562-18.234376-15.890625-19.164063zm0 0"/><path d="m271.398438 449.707031c-22.679688 3.648438-45.886719 2.167969-67.921876-4.328125v41.589844c0 4.875 3.953126 8.824219 8.828126 8.824219h70.621093c4.875 0 8.828125-3.949219 8.828125-8.824219v-41.589844c-5.832031 1.652344-11.753906 2.96875-17.734375 3.9375-.832031.261719-1.699219.394532-2.570312.398438zm0 0"/><path d="m292.179688 19.464844c.039062-4.683594-1.785157-9.191406-5.070313-12.53125-3.285156-3.335938-7.761719-5.234375-12.445313-5.273438l-52.964843-.414062h-.152344c-9.691406 0-17.570313 7.8125-17.652344 17.503906l-.203125 26.835938h88.273438zm0 0"/></svg>