<?xml version="1.0" encoding="UTF-8"?>
<svg xmlns="http://www.w3.org/2000/svg" xmlns:xlink="http://www.w3.org/1999/xlink" width="569.6pt" height="280.5pt" viewBox="0 0 569.6 280.5" version="1.1">
<g id="surface1">
<path style=" stroke:none;fill-rule:evenodd;fill:rgb(10.594177%,9.812927%,9.423828%);fill-opacity:1;" d="M 0 280.410156 L 569.625 280.410156 L 569.625 -0.0820313 L 0 -0.0820313 Z M 0 280.410156 "/>
<path style=" stroke:none;fill-rule:evenodd;fill:rgb(60.742188%,61.521912%,62.304688%);fill-opacity:1;" d="M 57.734375 151.515625 L 511.984375 151.515625 L 511.984375 147.359375 L 57.734375 147.359375 Z M 57.734375 151.515625 "/>
<path style=" stroke:none;fill-rule:evenodd;fill:rgb(47.851563%,50.584412%,51.367188%);fill-opacity:1;" d="M 57.734375 151.515625 L 511.984375 151.515625 L 511.984375 147.359375 L 57.734375 147.359375 Z M 57.734375 151.515625 "/>
<path style=" stroke:none;fill-rule:evenodd;fill:rgb(0%,0%,0%);fill-opacity:1;" d="M 253.75 97.277344 L 283.882813 97.277344 L 267.96875 71.597656 L 238.730469 117.996094 L 225.398438 118.011719 L 260.96875 62.304688 C 262.484375 60.058594 265.085938 58.683594 267.941406 58.683594 C 270.730469 58.683594 273.289063 60.007813 274.808594 62.207031 L 310.503906 118.011719 L 297.183594 117.996094 L 290.90625 107.628906 L 260.398438 107.628906 Z M 253.75 97.277344 "/>
<path style=" stroke:none;fill-rule:evenodd;fill:rgb(0%,0%,0%);fill-opacity:1;" d="M 392 107.628906 L 392 59.25 L 380.691406 59.25 L 380.691406 112.382813 C 380.691406 113.824219 381.308594 115.242188 382.359375 116.273438 C 383.445313 117.375 384.925781 117.996094 386.480469 117.996094 L 437.9375 117.996094 L 444.65625 107.628906 Z M 392 107.628906 "/>
<path style=" stroke:none;fill-rule:evenodd;fill:rgb(0%,0%,0%);fill-opacity:1;" d="M 205.144531 98.96875 C 216.144531 98.96875 224.988281 90.078125 224.988281 79.117188 C 224.988281 68.140625 216.144531 59.25 205.144531 59.25 L 155.714844 59.25 L 155.714844 117.996094 L 167.015625 117.996094 L 167.015625 69.628906 L 204.382813 69.628906 C 209.636719 69.628906 213.882813 73.867188 213.882813 79.117188 C 213.882813 84.34375 209.636719 88.636719 204.382813 88.636719 L 172.535156 88.625 L 206.265625 117.996094 L 222.660156 117.996094 L 199.996094 98.96875 Z M 205.144531 98.96875 "/>
<path style=" stroke:none;fill-rule:evenodd;fill:rgb(0%,0%,0%);fill-opacity:1;" d="M 86.214844 117.996094 C 69.992188 117.996094 56.839844 104.871094 56.839844 88.636719 C 56.839844 72.410156 69.992188 59.25 86.214844 59.25 L 120.367188 59.25 C 136.609375 59.25 149.695313 72.410156 149.695313 88.636719 C 149.695313 104.871094 136.609375 118.011719 120.367188 118.011719 Z M 119.585938 107.648438 C 130.113281 107.648438 138.609375 99.132813 138.609375 88.636719 C 138.609375 78.117188 130.113281 69.628906 119.585938 69.628906 L 86.972656 69.628906 C 76.472656 69.628906 67.964844 78.117188 67.964844 88.636719 C 67.964844 99.132813 76.472656 107.648438 86.972656 107.648438 Z M 119.585938 107.648438 "/>
<path style=" stroke:none;fill-rule:evenodd;fill:rgb(0%,0%,0%);fill-opacity:1;" d="M 334.097656 117.996094 C 317.847656 117.996094 304.675781 104.871094 304.675781 88.636719 C 304.675781 72.410156 317.847656 59.25 334.097656 59.25 L 374.65625 59.25 L 367.972656 69.628906 L 334.859375 69.628906 C 324.3125 69.628906 315.828125 78.117188 315.828125 88.636719 C 315.828125 99.132813 324.3125 107.648438 334.859375 107.648438 L 375.546875 107.648438 L 368.941406 117.996094 Z M 334.097656 117.996094 "/>
<path style=" stroke:none;fill-rule:evenodd;fill:rgb(0%,0%,0%);fill-opacity:1;" d="M 472.21875 107.648438 C 463.527344 107.648438 456.195313 101.8125 453.945313 93.820313 L 502.191406 93.820313 L 508.859375 83.464844 L 453.945313 83.464844 C 456.171875 75.457031 463.527344 69.628906 472.21875 69.628906 L 505.363281 69.628906 L 511.984375 59.25 L 471.476563 59.25 C 455.265625 59.25 442.113281 72.410156 442.113281 88.636719 C 442.113281 104.871094 455.265625 117.996094 471.476563 117.996094 L 506.328125 117.996094 L 512.964844 107.648438 Z M 472.21875 107.648438 "/>
<path style=" stroke:none;fill-rule:evenodd;fill:rgb(0%,0%,0%);fill-opacity:1;" d="M 518.054688 65.515625 C 518.054688 62.640625 520.375 60.332031 523.257813 60.332031 C 526.167969 60.332031 528.460938 62.640625 528.460938 65.515625 C 528.460938 68.378906 526.167969 70.695313 523.257813 70.695313 C 520.375 70.695313 518.054688 68.378906 518.054688 65.515625 Z M 523.257813 72.125 C 526.925781 72.125 529.847656 69.199219 529.847656 65.550781 C 529.847656 61.898438 526.925781 58.914063 523.257813 58.914063 C 519.605469 58.914063 516.648438 61.898438 516.648438 65.550781 C 516.648438 69.199219 519.605469 72.125 523.257813 72.125 Z M 522.640625 61.628906 C 523.632813 61.628906 524.074219 61.664063 524.59375 61.824219 C 525.894531 62.246094 525.992188 63.460938 525.992188 63.886719 C 525.992188 63.988281 525.964844 64.226563 525.910156 64.496094 C 525.855469 64.785156 525.699219 65.382813 525.035156 65.777344 C 524.917969 65.832031 524.871094 65.875 524.71875 65.953125 L 526.410156 69.019531 L 524.75 69.019531 L 523.238281 66.164063 L 522.265625 66.164063 L 522.265625 69.019531 L 520.789063 69.019531 L 520.789063 61.628906 Z M 523.164063 64.972656 C 523.601563 64.972656 524.09375 64.925781 524.339844 64.496094 C 524.542969 64.328125 524.574219 64.105469 524.574219 63.863281 C 524.574219 63.460938 524.339844 63.144531 524.003906 62.949219 C 523.632813 62.8125 523.335938 62.8125 522.640625 62.8125 L 522.265625 62.8125 L 522.265625 64.972656 Z M 523.164063 64.972656 "/>
<path style=" stroke:none;fill-rule:evenodd;fill:rgb(89.0625%,10.205078%,13.719177%);fill-opacity:1;" d="M 253.75 97.277344 L 283.882813 97.277344 L 267.96875 71.597656 L 238.730469 117.996094 L 225.398438 118.011719 L 260.96875 62.304688 C 262.484375 60.058594 265.085938 58.683594 267.941406 58.683594 C 270.730469 58.683594 273.289063 60.007813 274.808594 62.207031 L 310.503906 118.011719 L 297.183594 117.996094 L 290.90625 107.628906 L 260.398438 107.628906 Z M 253.75 97.277344 "/>
<path style=" stroke:none;fill-rule:evenodd;fill:rgb(89.0625%,10.205078%,13.719177%);fill-opacity:1;" d="M 392 107.628906 L 392 59.25 L 380.691406 59.25 L 380.691406 112.382813 C 380.691406 113.824219 381.308594 115.242188 382.359375 116.273438 C 383.445313 117.375 384.925781 117.996094 386.480469 117.996094 L 437.9375 117.996094 L 444.65625 107.628906 Z M 392 107.628906 "/>
<path style=" stroke:none;fill-rule:evenodd;fill:rgb(89.0625%,10.205078%,13.719177%);fill-opacity:1;" d="M 205.144531 98.96875 C 216.144531 98.96875 224.988281 90.078125 224.988281 79.117188 C 224.988281 68.140625 216.144531 59.25 205.144531 59.25 L 155.714844 59.25 L 155.714844 117.996094 L 167.015625 117.996094 L 167.015625 69.628906 L 204.382813 69.628906 C 209.636719 69.628906 213.882813 73.867188 213.882813 79.117188 C 213.882813 84.34375 209.636719 88.636719 204.382813 88.636719 L 172.535156 88.625 L 206.265625 117.996094 L 222.660156 117.996094 L 199.996094 98.96875 Z M 205.144531 98.96875 "/>
<path style=" stroke:none;fill-rule:evenodd;fill:rgb(89.0625%,10.205078%,13.719177%);fill-opacity:1;" d="M 86.214844 117.996094 C 69.992188 117.996094 56.839844 104.871094 56.839844 88.636719 C 56.839844 72.410156 69.992188 59.25 86.214844 59.25 L 120.367188 59.25 C 136.609375 59.25 149.695313 72.410156 149.695313 88.636719 C 149.695313 104.871094 136.609375 118.011719 120.367188 118.011719 Z M 119.585938 107.648438 C 130.113281 107.648438 138.609375 99.132813 138.609375 88.636719 C 138.609375 78.117188 130.113281 69.628906 119.585938 69.628906 L 86.972656 69.628906 C 76.472656 69.628906 67.964844 78.117188 67.964844 88.636719 C 67.964844 99.132813 76.472656 107.648438 86.972656 107.648438 Z M 119.585938 107.648438 "/>
<path style=" stroke:none;fill-rule:evenodd;fill:rgb(89.0625%,10.205078%,13.719177%);fill-opacity:1;" d="M 334.097656 117.996094 C 317.847656 117.996094 304.675781 104.871094 304.675781 88.636719 C 304.675781 72.410156 317.847656 59.25 334.097656 59.25 L 374.65625 59.25 L 367.972656 69.628906 L 334.859375 69.628906 C 324.3125 69.628906 315.828125 78.117188 315.828125 88.636719 C 315.828125 99.132813 324.3125 107.648438 334.859375 107.648438 L 375.546875 107.648438 L 368.941406 117.996094 Z M 334.097656 117.996094 "/>
<path style=" stroke:none;fill-rule:evenodd;fill:rgb(89.0625%,10.205078%,13.719177%);fill-opacity:1;" d="M 472.21875 107.648438 C 463.527344 107.648438 456.195313 101.8125 453.945313 93.820313 L 502.191406 93.820313 L 508.859375 83.464844 L 453.945313 83.464844 C 456.171875 75.457031 463.527344 69.628906 472.21875 69.628906 L 505.363281 69.628906 L 511.984375 59.25 L 471.476563 59.25 C 455.265625 59.25 442.113281 72.410156 442.113281 88.636719 C 442.113281 104.871094 455.265625 117.996094 471.476563 117.996094 L 506.328125 117.996094 L 512.964844 107.648438 Z M 472.21875 107.648438 "/>
<path style=" stroke:none;fill-rule:evenodd;fill:rgb(89.0625%,10.205078%,13.719177%);fill-opacity:1;" d="M 518.054688 65.515625 C 518.054688 62.640625 520.375 60.332031 523.257813 60.332031 C 526.167969 60.332031 528.460938 62.640625 528.460938 65.515625 C 528.460938 68.378906 526.167969 70.695313 523.257813 70.695313 C 520.375 70.695313 518.054688 68.378906 518.054688 65.515625 Z M 523.257813 72.125 C 526.925781 72.125 529.847656 69.199219 529.847656 65.550781 C 529.847656 61.898438 526.925781 58.914063 523.257813 58.914063 C 519.605469 58.914063 516.648438 61.898438 516.648438 65.550781 C 516.648438 69.199219 519.605469 72.125 523.257813 72.125 Z M 522.640625 61.628906 C 523.632813 61.628906 524.074219 61.664063 524.59375 61.824219 C 525.894531 62.246094 525.992188 63.460938 525.992188 63.886719 C 525.992188 63.988281 525.964844 64.226563 525.910156 64.496094 C 525.855469 64.785156 525.699219 65.382813 525.035156 65.777344 C 524.917969 65.832031 524.871094 65.875 524.71875 65.953125 L 526.410156 69.019531 L 524.75 69.019531 L 523.238281 66.164063 L 522.265625 66.164063 L 522.265625 69.019531 L 520.789063 69.019531 L 520.789063 61.628906 Z M 523.164063 64.972656 C 523.601563 64.972656 524.09375 64.925781 524.339844 64.496094 C 524.542969 64.328125 524.574219 64.105469 524.574219 63.863281 C 524.574219 63.460938 524.339844 63.144531 524.003906 62.949219 C 523.632813 62.8125 523.335938 62.8125 522.640625 62.8125 L 522.265625 62.8125 L 522.265625 64.972656 Z M 523.164063 64.972656 "/>
<path style=" stroke:none;fill-rule:evenodd;fill:rgb(100%,100%,100%);fill-opacity:1;" d="M 57.648438 180.566406 L 71.359375 180.566406 C 83.902344 180.453125 91.695313 186.710938 91.695313 200.691406 C 91.695313 214.671875 83.902344 220.929688 71.359375 220.800781 L 57.648438 220.800781 Z M 66.289063 214.125 L 70.75 214.125 C 81.003906 214.222656 82.507813 207.09375 82.507813 200.691406 C 82.507813 194.28125 81.003906 187.144531 70.75 187.257813 L 66.289063 187.257813 Z M 66.289063 214.125 "/>
<path style=" stroke:none;fill-rule:evenodd;fill:rgb(100%,100%,100%);fill-opacity:1;" d="M 118.613281 220.800781 L 133.164063 180.566406 L 143.417969 180.566406 L 157.40625 220.800781 L 148.714844 220.800781 L 145.816406 212.28125 L 129.875 212.28125 L 126.867188 220.800781 Z M 143.636719 205.59375 L 138.128906 188.425781 L 138.007813 188.425781 L 132.105469 205.59375 Z M 143.636719 205.59375 "/>
<path style=" stroke:none;fill-rule:evenodd;fill:rgb(100%,100%,100%);fill-opacity:1;" d="M 178.410156 180.566406 L 211.015625 180.566406 L 211.015625 187.257813 L 199.039063 187.257813 L 199.039063 220.800781 L 190.402344 220.800781 L 190.402344 187.257813 L 178.410156 187.257813 Z M 178.410156 180.566406 "/>
<path style=" stroke:none;fill-rule:evenodd;fill:rgb(100%,100%,100%);fill-opacity:1;" d="M 233.03125 220.800781 L 247.578125 180.566406 L 257.828125 180.566406 L 271.820313 220.800781 L 263.125 220.800781 L 260.230469 212.28125 L 244.285156 212.28125 L 241.273438 220.800781 Z M 258.054688 205.59375 L 252.539063 188.425781 L 252.429688 188.425781 L 246.515625 205.59375 Z M 258.054688 205.59375 "/>
<path style=" stroke:none;fill-rule:evenodd;fill:rgb(100%,100%,100%);fill-opacity:1;" d="M 299.964844 220.800781 L 299.964844 180.566406 L 315.058594 180.566406 C 322.25 180.128906 329.605469 183.128906 329.605469 190.988281 C 329.605469 195.394531 326.542969 198.453125 322.539063 199.804688 L 322.539063 199.902344 C 327.601563 200.957031 331.390625 204.480469 331.390625 210.390625 C 331.390625 218.367188 321.363281 221.25 315.175781 220.800781 Z M 315.339844 196.734375 C 318.96875 196.734375 320.976563 195.226563 320.976563 191.988281 C 320.976563 188.761719 318.96875 187.257813 315.339844 187.257813 L 308.601563 187.257813 L 308.601563 196.734375 Z M 315.339844 214.125 C 319.414063 214.125 322.199219 213.394531 322.199219 208.773438 C 322.199219 204.140625 319.414063 203.417969 315.339844 203.417969 L 308.601563 203.417969 L 308.601563 214.125 Z M 315.339844 214.125 "/>
<path style=" stroke:none;fill-rule:evenodd;fill:rgb(100%,100%,100%);fill-opacity:1;" d="M 357.699219 220.800781 L 372.246094 180.566406 L 382.492188 180.566406 L 396.484375 220.800781 L 387.789063 220.800781 L 384.894531 212.28125 L 368.953125 212.28125 L 365.941406 220.800781 Z M 382.722656 205.59375 L 377.203125 188.425781 L 377.09375 188.425781 L 371.1875 205.59375 Z M 382.722656 205.59375 "/>
<path style=" stroke:none;fill-rule:evenodd;fill:rgb(100%,100%,100%);fill-opacity:1;" d="M 446.140625 192.046875 C 445.804688 187.984375 443.636719 185.972656 439.453125 185.972656 C 436.265625 185.972656 433.042969 187.648438 433.042969 191.152344 C 433.042969 195.511719 436.945313 196.015625 440.398438 196.847656 C 446.53125 198.394531 455.550781 200.125 455.550781 208.210938 C 455.550781 218.195313 446.871094 221.644531 438.226563 221.644531 C 429.027344 221.644531 422.511719 218.085938 422.792969 207.933594 L 431.59375 207.933594 C 431.261719 212.390625 433.820313 215.390625 438.339844 215.390625 C 441.796875 215.390625 446.359375 214.335938 446.359375 210.054688 C 446.359375 205.3125 440.625 204.988281 437.167969 204.082031 C 431.539063 202.691406 423.84375 200.125 423.84375 192.988281 C 423.84375 183.808594 432.316406 179.734375 440.566406 179.734375 C 448.375 179.734375 454.441406 183.960938 454.441406 192.046875 Z M 446.140625 192.046875 "/>
<path style=" stroke:none;fill-rule:evenodd;fill:rgb(100%,100%,100%);fill-opacity:1;" d="M 484.875 180.566406 L 511.84375 180.566406 L 511.84375 187.257813 L 493.511719 187.257813 L 493.511719 196.679688 L 510.679688 196.679688 L 510.679688 203.367188 L 493.511719 203.367188 L 493.511719 214.125 L 512.457031 214.125 L 512.457031 220.800781 L 484.875 220.800781 Z M 484.875 180.566406 "/>
</g>
</svg>
