<svg fill="#000000" xmlns="http://www.w3.org/2000/svg"  viewBox="0 0 32 32" width="512px" height="512px"><path d="M27.534,17.792c-1.118,0.006-2.086,0.274-2.898,0.674c-0.297-0.592-0.597-1.114-0.648-1.501	c-0.059-0.452-0.127-0.722-0.056-1.261c0.071-0.539,0.383-1.302,0.378-1.359c-0.005-0.057-0.07-0.332-0.715-0.336	c-0.645-0.005-1.196,0.124-1.261,0.294c-0.065,0.17-0.189,0.553-0.266,0.953c-0.113,0.585-1.287,2.67-1.954,3.761	c-0.218-0.426-0.403-0.801-0.442-1.098c-0.059-0.452-0.127-0.722-0.056-1.261c0.071-0.539,0.383-1.302,0.378-1.359	c-0.005-0.057-0.07-0.332-0.715-0.336c-0.645-0.005-1.196,0.124-1.261,0.294c-0.065,0.17-0.134,0.568-0.266,0.953	c-0.132,0.385-1.693,3.863-2.102,4.765c-0.208,0.459-0.39,0.828-0.518,1.08c0-0.001-0.001-0.001-0.001-0.001	s-0.008,0.017-0.021,0.045c-0.11,0.215-0.175,0.333-0.175,0.333s0.001,0.002,0.002,0.004c-0.087,0.158-0.18,0.304-0.226,0.304	c-0.032,0-0.097-0.419,0.014-0.995c0.232-1.207,0.79-3.088,0.785-3.153c-0.003-0.033,0.104-0.361-0.364-0.533	c-0.455-0.167-0.617,0.111-0.659,0.112c-0.04,0.001-0.07,0.098-0.07,0.098s0.507-2.116-0.967-2.116	c-0.921,0-2.198,1.008-2.827,1.922c-0.397,0.217-1.246,0.68-2.148,1.175c-0.346,0.19-0.699,0.384-1.034,0.569	c-0.023-0.025-0.045-0.05-0.069-0.075c-1.787-1.907-5.091-3.255-4.951-5.819c0.051-0.932,0.375-3.386,6.348-6.362	c4.893-2.438,8.81-1.767,9.487-0.28c0.967,2.124-2.094,6.073-7.175,6.642c-1.936,0.217-2.955-0.533-3.209-0.813	c-0.267-0.294-0.307-0.307-0.406-0.252c-0.162,0.09-0.059,0.35,0,0.504c0.152,0.395,0.774,1.095,1.836,1.443	c0.934,0.306,3.207,0.475,5.956-0.589c3.079-1.191,5.483-4.504,4.777-7.273c-0.718-2.816-5.388-3.742-9.808-2.172	C7.597,5.708,4.749,7.175,2.702,9.09c-2.434,2.277-2.823,4.259-2.663,5.087c0.568,2.942,4.624,4.858,6.248,6.278	c-0.08,0.044-0.155,0.086-0.224,0.123c-0.814,0.403-3.905,2.021-4.679,3.73c-0.877,1.939,0.14,3.33,0.813,3.517	c2.086,0.58,4.226-0.464,5.376-2.179c1.15-1.715,1.009-3.948,0.482-4.968c-0.007-0.013-0.014-0.025-0.021-0.038	c0.21-0.124,0.425-0.251,0.637-0.376c0.414-0.243,0.821-0.47,1.174-0.662c-0.197,0.541-0.342,1.19-0.417,2.127	c-0.088,1.101,0.363,2.523,0.953,3.083c0.26,0.246,0.573,0.252,0.771,0.252c0.687,0,1-0.571,1.345-1.247	c0.423-0.829,0.799-1.794,0.799-1.794s-0.471,2.606,0.813,2.606c0.468,0,0.939-0.607,1.148-0.916	c0.001,0.003,0.001,0.005,0.001,0.005s0.012-0.02,0.036-0.061c0.049-0.074,0.076-0.122,0.076-0.122s0.001-0.005,0.002-0.013	c0.188-0.327,0.605-1.071,1.231-2.299c0.808-1.586,1.583-3.573,1.583-3.573s0.072,0.486,0.308,1.289	c0.139,0.473,0.434,0.995,0.667,1.496c-0.187,0.26-0.303,0.41-0.303,0.41s0.001,0.003,0.003,0.008	c-0.15,0.199-0.318,0.414-0.494,0.623c-0.638,0.76-1.398,1.627-1.499,1.878c-0.12,0.295-0.092,0.512,0.14,0.687	c0.169,0.128,0.47,0.147,0.785,0.126c0.573-0.039,0.977-0.181,1.176-0.267c0.31-0.11,0.671-0.282,1.011-0.531	c0.626-0.46,1.003-1.118,0.967-1.99c-0.02-0.48-0.173-0.957-0.367-1.406c0.057-0.082,0.114-0.164,0.171-0.247	c0.987-1.442,1.752-3.027,1.752-3.027s0.072,0.486,0.308,1.289c0.12,0.407,0.355,0.85,0.567,1.285	c-0.928,0.754-1.503,1.629-1.703,2.204c-0.369,1.063-0.08,1.544,0.462,1.654c0.246,0.05,0.593-0.063,0.854-0.173	c0.325-0.108,0.715-0.287,1.08-0.555c0.626-0.46,1.227-1.104,1.191-1.976c-0.017-0.397-0.124-0.791-0.27-1.169	c0.786-0.328,1.804-0.51,3.101-0.358c2.782,0.325,3.327,2.062,3.223,2.789c-0.104,0.727-0.688,1.127-0.883,1.247	c-0.195,0.121-0.255,0.163-0.238,0.252c0.024,0.13,0.114,0.125,0.28,0.097c0.229-0.039,1.461-0.591,1.513-1.933	C32.057,19.648,30.425,17.777,27.534,17.792z M6.093,25.021c-0.921,1.005-2.209,1.385-2.761,1.065	c-0.596-0.346-0.36-1.825,0.771-2.892c0.689-0.65,1.579-1.249,2.169-1.618c0.134-0.081,0.332-0.2,0.571-0.343	c0.04-0.023,0.062-0.035,0.062-0.035l-0.001-0.001c0.046-0.028,0.094-0.056,0.143-0.085C7.459,22.629,7.06,23.966,6.093,25.021z M12.805,20.457c-0.321,0.782-0.993,2.784-1.401,2.677c-0.351-0.092-0.565-1.614-0.07-3.111c0.249-0.754,0.781-1.654,1.093-2.004	c0.503-0.563,1.057-0.747,1.191-0.518C13.789,17.791,13.006,19.967,12.805,20.457z M18.351,23.103	c-0.136,0.071-0.261,0.116-0.319,0.081c-0.043-0.025,0.056-0.119,0.056-0.119s0.694-0.746,0.967-1.086	c0.159-0.198,0.343-0.432,0.544-0.695c0.002,0.026,0.003,0.052,0.003,0.078C19.599,22.257,18.736,22.861,18.351,23.103z M22.623,22.13c-0.101-0.072-0.085-0.306,0.249-1.033c0.131-0.286,0.43-0.766,0.95-1.225c0.06,0.189,0.097,0.37,0.096,0.539	C23.911,21.535,23.108,21.955,22.623,22.13z"/></svg>